<mxfile host="app.diagrams.net" modified="2024-05-22T17:27:49.517Z" agent="Mozilla/5.0 (Windows NT 10.0; Win64; x64) AppleWebKit/537.36 (KHTML, like Gecko) Chrome/124.0.0.0 Safari/537.36" etag="TDEty7AdxB68--Si42Qx" version="24.4.6" type="google" pages="3">
  <diagram name="Users" id="3Vgc8hgHLgCOpoc_DV_4">
    <mxGraphModel dx="1146" dy="1290" grid="0" gridSize="10" guides="1" tooltips="1" connect="1" arrows="1" fold="1" page="0" pageScale="1" pageWidth="827" pageHeight="1169" math="0" shadow="0">
      <root>
        <mxCell id="0" />
        <mxCell id="1" parent="0" />
        <mxCell id="K_TUW-LrNlbNNqXEg0El-1" style="edgeStyle=none;curved=1;rounded=0;orthogonalLoop=1;jettySize=auto;html=1;exitX=0;exitY=0;exitDx=0;exitDy=0;fontSize=12;startSize=8;endSize=8;" edge="1" parent="1" source="K_TUW-LrNlbNNqXEg0El-2" target="K_TUW-LrNlbNNqXEg0El-4">
          <mxGeometry relative="1" as="geometry" />
        </mxCell>
        <mxCell id="K_TUW-LrNlbNNqXEg0El-2" value="&lt;font style=&quot;font-size: 16px;&quot;&gt;user 1&lt;/font&gt;" style="ellipse;whiteSpace=wrap;html=1;aspect=fixed;" vertex="1" parent="1">
          <mxGeometry x="117" y="57" width="80" height="80" as="geometry" />
        </mxCell>
        <mxCell id="K_TUW-LrNlbNNqXEg0El-3" style="edgeStyle=none;curved=1;rounded=0;orthogonalLoop=1;jettySize=auto;html=1;exitX=0.045;exitY=0.339;exitDx=0;exitDy=0;fontSize=12;startSize=8;endSize=8;exitPerimeter=0;" edge="1" parent="1" source="K_TUW-LrNlbNNqXEg0El-4" target="K_TUW-LrNlbNNqXEg0El-18">
          <mxGeometry relative="1" as="geometry" />
        </mxCell>
        <mxCell id="K_TUW-LrNlbNNqXEg0El-4" value="&lt;font style=&quot;font-size: 16px;&quot;&gt;user 2&lt;/font&gt;" style="ellipse;whiteSpace=wrap;html=1;aspect=fixed;" vertex="1" parent="1">
          <mxGeometry x="39" y="-20" width="80" height="80" as="geometry" />
        </mxCell>
        <mxCell id="K_TUW-LrNlbNNqXEg0El-5" style="edgeStyle=none;curved=1;rounded=0;orthogonalLoop=1;jettySize=auto;html=1;exitX=0;exitY=0;exitDx=0;exitDy=0;fontSize=12;startSize=8;endSize=8;" edge="1" parent="1" source="K_TUW-LrNlbNNqXEg0El-7" target="K_TUW-LrNlbNNqXEg0El-2">
          <mxGeometry relative="1" as="geometry" />
        </mxCell>
        <mxCell id="K_TUW-LrNlbNNqXEg0El-6" style="edgeStyle=none;curved=1;rounded=0;orthogonalLoop=1;jettySize=auto;html=1;exitX=0;exitY=0.5;exitDx=0;exitDy=0;fontSize=12;startSize=8;endSize=8;" edge="1" parent="1" source="K_TUW-LrNlbNNqXEg0El-7" target="K_TUW-LrNlbNNqXEg0El-14">
          <mxGeometry relative="1" as="geometry" />
        </mxCell>
        <mxCell id="K_TUW-LrNlbNNqXEg0El-7" value="&lt;font style=&quot;font-size: 16px;&quot;&gt;user 3&lt;/font&gt;" style="ellipse;whiteSpace=wrap;html=1;aspect=fixed;" vertex="1" parent="1">
          <mxGeometry x="189" y="149" width="80" height="80" as="geometry" />
        </mxCell>
        <mxCell id="K_TUW-LrNlbNNqXEg0El-8" style="edgeStyle=none;curved=1;rounded=0;orthogonalLoop=1;jettySize=auto;html=1;exitX=1;exitY=0.363;exitDx=0;exitDy=0;fontSize=12;startSize=8;endSize=8;exitPerimeter=0;" edge="1" parent="1" source="K_TUW-LrNlbNNqXEg0El-9" target="K_TUW-LrNlbNNqXEg0El-4">
          <mxGeometry relative="1" as="geometry" />
        </mxCell>
        <mxCell id="K_TUW-LrNlbNNqXEg0El-9" value="&lt;font style=&quot;font-size: 16px;&quot;&gt;user 4&lt;/font&gt;" style="ellipse;whiteSpace=wrap;html=1;aspect=fixed;" vertex="1" parent="1">
          <mxGeometry x="-90" y="8" width="80" height="80" as="geometry" />
        </mxCell>
        <mxCell id="K_TUW-LrNlbNNqXEg0El-10" style="edgeStyle=none;curved=1;rounded=0;orthogonalLoop=1;jettySize=auto;html=1;exitX=1;exitY=0.5;exitDx=0;exitDy=0;entryX=0;entryY=0.5;entryDx=0;entryDy=0;fontSize=12;startSize=8;endSize=8;" edge="1" parent="1" source="K_TUW-LrNlbNNqXEg0El-11" target="K_TUW-LrNlbNNqXEg0El-9">
          <mxGeometry relative="1" as="geometry" />
        </mxCell>
        <mxCell id="K_TUW-LrNlbNNqXEg0El-11" value="&lt;font style=&quot;font-size: 16px;&quot;&gt;user 5&lt;/font&gt;" style="ellipse;whiteSpace=wrap;html=1;aspect=fixed;" vertex="1" parent="1">
          <mxGeometry x="-224" y="12" width="80" height="80" as="geometry" />
        </mxCell>
        <mxCell id="K_TUW-LrNlbNNqXEg0El-12" style="edgeStyle=none;curved=1;rounded=0;orthogonalLoop=1;jettySize=auto;html=1;exitX=0;exitY=1;exitDx=0;exitDy=0;fontSize=12;startSize=8;endSize=8;" edge="1" parent="1" source="K_TUW-LrNlbNNqXEg0El-14" target="K_TUW-LrNlbNNqXEg0El-15">
          <mxGeometry relative="1" as="geometry" />
        </mxCell>
        <mxCell id="K_TUW-LrNlbNNqXEg0El-13" style="edgeStyle=none;curved=1;rounded=0;orthogonalLoop=1;jettySize=auto;html=1;exitX=1;exitY=1;exitDx=0;exitDy=0;entryX=0;entryY=0;entryDx=0;entryDy=0;fontSize=12;startSize=8;endSize=8;" edge="1" parent="1" source="K_TUW-LrNlbNNqXEg0El-14" target="K_TUW-LrNlbNNqXEg0El-17">
          <mxGeometry relative="1" as="geometry" />
        </mxCell>
        <mxCell id="K_TUW-LrNlbNNqXEg0El-14" value="&lt;font style=&quot;font-size: 16px;&quot;&gt;user 6&lt;/font&gt;" style="ellipse;whiteSpace=wrap;html=1;aspect=fixed;" vertex="1" parent="1">
          <mxGeometry x="65" y="158" width="80" height="80" as="geometry" />
        </mxCell>
        <mxCell id="K_TUW-LrNlbNNqXEg0El-15" value="&lt;font style=&quot;font-size: 16px;&quot;&gt;user 7&lt;/font&gt;" style="ellipse;whiteSpace=wrap;html=1;aspect=fixed;" vertex="1" parent="1">
          <mxGeometry x="-10" y="256" width="80" height="80" as="geometry" />
        </mxCell>
        <mxCell id="K_TUW-LrNlbNNqXEg0El-16" style="edgeStyle=none;curved=1;rounded=0;orthogonalLoop=1;jettySize=auto;html=1;exitX=0.714;exitY=0.048;exitDx=0;exitDy=0;entryX=0.5;entryY=1;entryDx=0;entryDy=0;fontSize=12;startSize=8;endSize=8;exitPerimeter=0;" edge="1" parent="1" source="K_TUW-LrNlbNNqXEg0El-17" target="K_TUW-LrNlbNNqXEg0El-7">
          <mxGeometry relative="1" as="geometry" />
        </mxCell>
        <mxCell id="K_TUW-LrNlbNNqXEg0El-17" value="&lt;font style=&quot;font-size: 16px;&quot;&gt;user 8&lt;/font&gt;" style="ellipse;whiteSpace=wrap;html=1;aspect=fixed;" vertex="1" parent="1">
          <mxGeometry x="156" y="246" width="80" height="80" as="geometry" />
        </mxCell>
        <mxCell id="K_TUW-LrNlbNNqXEg0El-18" value="&lt;font style=&quot;font-size: 16px;&quot;&gt;user 9&lt;/font&gt;" style="ellipse;whiteSpace=wrap;html=1;aspect=fixed;" vertex="1" parent="1">
          <mxGeometry x="-102" y="-91" width="80" height="80" as="geometry" />
        </mxCell>
        <mxCell id="K_TUW-LrNlbNNqXEg0El-19" style="edgeStyle=none;curved=1;rounded=0;orthogonalLoop=1;jettySize=auto;html=1;exitX=0;exitY=0;exitDx=0;exitDy=0;entryX=0.5;entryY=1;entryDx=0;entryDy=0;fontSize=12;startSize=8;endSize=8;" edge="1" parent="1" source="K_TUW-LrNlbNNqXEg0El-20" target="K_TUW-LrNlbNNqXEg0El-11">
          <mxGeometry relative="1" as="geometry" />
        </mxCell>
        <mxCell id="K_TUW-LrNlbNNqXEg0El-20" value="&lt;font style=&quot;font-size: 16px;&quot;&gt;user 10&lt;/font&gt;" style="ellipse;whiteSpace=wrap;html=1;aspect=fixed;" vertex="1" parent="1">
          <mxGeometry x="-151" y="105" width="80" height="80" as="geometry" />
        </mxCell>
      </root>
    </mxGraphModel>
  </diagram>
  <diagram id="AynncemvIOABVyhiSxIY" name="Projects">
    <mxGraphModel dx="1946" dy="490" grid="0" gridSize="10" guides="1" tooltips="1" connect="1" arrows="1" fold="1" page="0" pageScale="1" pageWidth="827" pageHeight="1169" math="0" shadow="0">
      <root>
        <mxCell id="0" />
        <mxCell id="1" parent="0" />
        <mxCell id="3mA3ueJURLx5biemt2Sj-1" style="edgeStyle=none;curved=1;rounded=0;orthogonalLoop=1;jettySize=auto;html=1;exitX=0.5;exitY=1;exitDx=0;exitDy=0;entryX=0.5;entryY=0;entryDx=0;entryDy=0;fontSize=12;startSize=8;endSize=8;" edge="1" parent="1" source="3mA3ueJURLx5biemt2Sj-3" target="3mA3ueJURLx5biemt2Sj-12">
          <mxGeometry relative="1" as="geometry" />
        </mxCell>
        <mxCell id="3mA3ueJURLx5biemt2Sj-2" style="edgeStyle=none;curved=1;rounded=0;orthogonalLoop=1;jettySize=auto;html=1;exitX=0.5;exitY=1;exitDx=0;exitDy=0;entryX=0.5;entryY=0;entryDx=0;entryDy=0;fontSize=12;startSize=8;endSize=8;" edge="1" parent="1" source="3mA3ueJURLx5biemt2Sj-3" target="3mA3ueJURLx5biemt2Sj-16">
          <mxGeometry relative="1" as="geometry" />
        </mxCell>
        <mxCell id="3mA3ueJURLx5biemt2Sj-3" value="&lt;font style=&quot;font-size: 16px;&quot;&gt;user 1&lt;/font&gt;" style="ellipse;whiteSpace=wrap;html=1;aspect=fixed;" vertex="1" parent="1">
          <mxGeometry x="-845" y="521" width="80" height="80" as="geometry" />
        </mxCell>
        <mxCell id="3mA3ueJURLx5biemt2Sj-4" style="edgeStyle=none;curved=1;rounded=0;orthogonalLoop=1;jettySize=auto;html=1;exitX=0.5;exitY=1;exitDx=0;exitDy=0;entryX=0.5;entryY=0;entryDx=0;entryDy=0;fontSize=12;startSize=8;endSize=8;" edge="1" parent="1" source="3mA3ueJURLx5biemt2Sj-5" target="3mA3ueJURLx5biemt2Sj-12">
          <mxGeometry relative="1" as="geometry" />
        </mxCell>
        <mxCell id="3mA3ueJURLx5biemt2Sj-5" value="&lt;font style=&quot;font-size: 16px;&quot;&gt;user 5&lt;/font&gt;" style="ellipse;whiteSpace=wrap;html=1;aspect=fixed;" vertex="1" parent="1">
          <mxGeometry x="-756" y="521" width="80" height="80" as="geometry" />
        </mxCell>
        <mxCell id="3mA3ueJURLx5biemt2Sj-6" style="edgeStyle=none;curved=1;rounded=0;orthogonalLoop=1;jettySize=auto;html=1;exitX=0.5;exitY=1;exitDx=0;exitDy=0;entryX=0.5;entryY=0;entryDx=0;entryDy=0;fontSize=12;startSize=8;endSize=8;" edge="1" parent="1" source="3mA3ueJURLx5biemt2Sj-7" target="3mA3ueJURLx5biemt2Sj-13">
          <mxGeometry relative="1" as="geometry" />
        </mxCell>
        <mxCell id="3mA3ueJURLx5biemt2Sj-7" value="&lt;font style=&quot;font-size: 16px;&quot;&gt;user 2&lt;/font&gt;" style="ellipse;whiteSpace=wrap;html=1;aspect=fixed;" vertex="1" parent="1">
          <mxGeometry x="-1049" y="521" width="80" height="80" as="geometry" />
        </mxCell>
        <mxCell id="3mA3ueJURLx5biemt2Sj-8" style="edgeStyle=none;curved=1;rounded=0;orthogonalLoop=1;jettySize=auto;html=1;exitX=0.5;exitY=1;exitDx=0;exitDy=0;entryX=0.5;entryY=0;entryDx=0;entryDy=0;fontSize=12;startSize=8;endSize=8;" edge="1" parent="1" source="3mA3ueJURLx5biemt2Sj-9" target="3mA3ueJURLx5biemt2Sj-14">
          <mxGeometry relative="1" as="geometry" />
        </mxCell>
        <mxCell id="3mA3ueJURLx5biemt2Sj-9" value="&lt;font style=&quot;font-size: 16px;&quot;&gt;user 3&lt;/font&gt;" style="ellipse;whiteSpace=wrap;html=1;aspect=fixed;" vertex="1" parent="1">
          <mxGeometry x="-959" y="806" width="80" height="80" as="geometry" />
        </mxCell>
        <mxCell id="3mA3ueJURLx5biemt2Sj-10" style="edgeStyle=none;curved=1;rounded=0;orthogonalLoop=1;jettySize=auto;html=1;exitX=0.5;exitY=1;exitDx=0;exitDy=0;entryX=0.5;entryY=0;entryDx=0;entryDy=0;fontSize=12;startSize=8;endSize=8;" edge="1" parent="1" source="3mA3ueJURLx5biemt2Sj-11" target="3mA3ueJURLx5biemt2Sj-12">
          <mxGeometry relative="1" as="geometry" />
        </mxCell>
        <mxCell id="3mA3ueJURLx5biemt2Sj-11" value="&lt;font style=&quot;font-size: 16px;&quot;&gt;user 8&lt;/font&gt;" style="ellipse;whiteSpace=wrap;html=1;aspect=fixed;" vertex="1" parent="1">
          <mxGeometry x="-665" y="521" width="80" height="80" as="geometry" />
        </mxCell>
        <mxCell id="3mA3ueJURLx5biemt2Sj-12" value="&lt;span style=&quot;font-size: 16px;&quot;&gt;project 1&lt;/span&gt;" style="whiteSpace=wrap;html=1;aspect=fixed;" vertex="1" parent="1">
          <mxGeometry x="-756" y="667" width="80" height="80" as="geometry" />
        </mxCell>
        <mxCell id="3mA3ueJURLx5biemt2Sj-13" value="&lt;font style=&quot;font-size: 16px;&quot;&gt;project 2&lt;/font&gt;" style="whiteSpace=wrap;html=1;aspect=fixed;" vertex="1" parent="1">
          <mxGeometry x="-1047" y="667" width="80" height="80" as="geometry" />
        </mxCell>
        <mxCell id="3mA3ueJURLx5biemt2Sj-14" value="&lt;span style=&quot;font-size: 16px;&quot;&gt;project 3&lt;/span&gt;" style="whiteSpace=wrap;html=1;aspect=fixed;" vertex="1" parent="1">
          <mxGeometry x="-998" y="954" width="80" height="80" as="geometry" />
        </mxCell>
        <mxCell id="3mA3ueJURLx5biemt2Sj-15" value="&lt;span style=&quot;font-size: 16px;&quot;&gt;project 4&lt;/span&gt;" style="whiteSpace=wrap;html=1;aspect=fixed;" vertex="1" parent="1">
          <mxGeometry x="-740" y="954" width="80" height="80" as="geometry" />
        </mxCell>
        <mxCell id="3mA3ueJURLx5biemt2Sj-16" value="&lt;span style=&quot;font-size: 16px;&quot;&gt;project 9&lt;/span&gt;" style="whiteSpace=wrap;html=1;aspect=fixed;" vertex="1" parent="1">
          <mxGeometry x="-912" y="667" width="80" height="80" as="geometry" />
        </mxCell>
        <mxCell id="3mA3ueJURLx5biemt2Sj-17" style="edgeStyle=none;curved=1;rounded=0;orthogonalLoop=1;jettySize=auto;html=1;exitX=0.5;exitY=1;exitDx=0;exitDy=0;entryX=0.5;entryY=0;entryDx=0;entryDy=0;fontSize=12;startSize=8;endSize=8;" edge="1" parent="1" source="3mA3ueJURLx5biemt2Sj-18" target="3mA3ueJURLx5biemt2Sj-14">
          <mxGeometry relative="1" as="geometry" />
        </mxCell>
        <mxCell id="3mA3ueJURLx5biemt2Sj-18" value="&lt;font style=&quot;font-size: 16px;&quot;&gt;user 4&lt;/font&gt;" style="ellipse;whiteSpace=wrap;html=1;aspect=fixed;" vertex="1" parent="1">
          <mxGeometry x="-1052" y="806" width="80" height="80" as="geometry" />
        </mxCell>
        <mxCell id="3mA3ueJURLx5biemt2Sj-19" style="edgeStyle=none;curved=1;rounded=0;orthogonalLoop=1;jettySize=auto;html=1;exitX=0.5;exitY=1;exitDx=0;exitDy=0;entryX=0.5;entryY=0;entryDx=0;entryDy=0;fontSize=12;startSize=8;endSize=8;" edge="1" parent="1" source="3mA3ueJURLx5biemt2Sj-20" target="3mA3ueJURLx5biemt2Sj-15">
          <mxGeometry relative="1" as="geometry" />
        </mxCell>
        <mxCell id="3mA3ueJURLx5biemt2Sj-20" value="&lt;font style=&quot;font-size: 16px;&quot;&gt;user 6&lt;/font&gt;" style="ellipse;whiteSpace=wrap;html=1;aspect=fixed;" vertex="1" parent="1">
          <mxGeometry x="-740" y="806" width="80" height="80" as="geometry" />
        </mxCell>
        <mxCell id="3mA3ueJURLx5biemt2Sj-21" style="edgeStyle=none;curved=1;rounded=0;orthogonalLoop=1;jettySize=auto;html=1;exitX=0.5;exitY=1;exitDx=0;exitDy=0;entryX=0.5;entryY=0;entryDx=0;entryDy=0;fontSize=12;startSize=8;endSize=8;" edge="1" parent="1" source="3mA3ueJURLx5biemt2Sj-22" target="3mA3ueJURLx5biemt2Sj-15">
          <mxGeometry relative="1" as="geometry" />
        </mxCell>
        <mxCell id="3mA3ueJURLx5biemt2Sj-22" value="&lt;font style=&quot;font-size: 16px;&quot;&gt;user 7&lt;/font&gt;" style="ellipse;whiteSpace=wrap;html=1;aspect=fixed;" vertex="1" parent="1">
          <mxGeometry x="-855" y="806" width="80" height="80" as="geometry" />
        </mxCell>
        <mxCell id="3mA3ueJURLx5biemt2Sj-23" style="edgeStyle=none;curved=1;rounded=0;orthogonalLoop=1;jettySize=auto;html=1;exitX=0.5;exitY=1;exitDx=0;exitDy=0;entryX=0.5;entryY=0;entryDx=0;entryDy=0;fontSize=12;startSize=8;endSize=8;" edge="1" parent="1" source="3mA3ueJURLx5biemt2Sj-24" target="3mA3ueJURLx5biemt2Sj-15">
          <mxGeometry relative="1" as="geometry" />
        </mxCell>
        <mxCell id="3mA3ueJURLx5biemt2Sj-24" value="&lt;font style=&quot;font-size: 16px;&quot;&gt;user 9&lt;/font&gt;" style="ellipse;whiteSpace=wrap;html=1;aspect=fixed;" vertex="1" parent="1">
          <mxGeometry x="-615" y="804" width="80" height="80" as="geometry" />
        </mxCell>
        <mxCell id="3mA3ueJURLx5biemt2Sj-25" style="edgeStyle=none;curved=1;rounded=0;orthogonalLoop=1;jettySize=auto;html=1;exitX=0.5;exitY=1;exitDx=0;exitDy=0;entryX=0.5;entryY=0;entryDx=0;entryDy=0;fontSize=12;startSize=8;endSize=8;" edge="1" parent="1" source="3mA3ueJURLx5biemt2Sj-26" target="3mA3ueJURLx5biemt2Sj-16">
          <mxGeometry relative="1" as="geometry" />
        </mxCell>
        <mxCell id="3mA3ueJURLx5biemt2Sj-26" value="&lt;font style=&quot;font-size: 16px;&quot;&gt;user 10&lt;/font&gt;" style="ellipse;whiteSpace=wrap;html=1;aspect=fixed;" vertex="1" parent="1">
          <mxGeometry x="-947" y="521" width="80" height="80" as="geometry" />
        </mxCell>
      </root>
    </mxGraphModel>
  </diagram>
  <diagram id="qURxpsU9eQzYqsS5tPh4" name="Companies">
    <mxGraphModel dx="2253" dy="779" grid="0" gridSize="10" guides="1" tooltips="1" connect="1" arrows="1" fold="1" page="0" pageScale="1" pageWidth="827" pageHeight="1169" math="0" shadow="0">
      <root>
        <mxCell id="0" />
        <mxCell id="1" parent="0" />
        <mxCell id="ba1DpxkW9Q_4-LXGkMh1-1" style="edgeStyle=none;curved=1;rounded=0;orthogonalLoop=1;jettySize=auto;html=1;exitX=0.5;exitY=1;exitDx=0;exitDy=0;entryX=0.5;entryY=0;entryDx=0;entryDy=0;fontSize=12;startSize=8;endSize=8;" edge="1" parent="1" source="ba1DpxkW9Q_4-LXGkMh1-3" target="ba1DpxkW9Q_4-LXGkMh1-12">
          <mxGeometry relative="1" as="geometry" />
        </mxCell>
        <mxCell id="ba1DpxkW9Q_4-LXGkMh1-2" style="edgeStyle=none;curved=1;rounded=0;orthogonalLoop=1;jettySize=auto;html=1;exitX=0.5;exitY=1;exitDx=0;exitDy=0;entryX=0.5;entryY=0;entryDx=0;entryDy=0;fontSize=12;startSize=8;endSize=8;" edge="1" parent="1" source="ba1DpxkW9Q_4-LXGkMh1-3" target="ba1DpxkW9Q_4-LXGkMh1-15">
          <mxGeometry relative="1" as="geometry" />
        </mxCell>
        <mxCell id="ba1DpxkW9Q_4-LXGkMh1-3" value="&lt;font style=&quot;font-size: 16px;&quot;&gt;user 1&lt;/font&gt;" style="ellipse;whiteSpace=wrap;html=1;aspect=fixed;" vertex="1" parent="1">
          <mxGeometry x="-1175" y="141" width="80" height="80" as="geometry" />
        </mxCell>
        <mxCell id="ba1DpxkW9Q_4-LXGkMh1-4" style="edgeStyle=none;curved=1;rounded=0;orthogonalLoop=1;jettySize=auto;html=1;exitX=0.5;exitY=1;exitDx=0;exitDy=0;entryX=0.5;entryY=0;entryDx=0;entryDy=0;fontSize=12;startSize=8;endSize=8;" edge="1" parent="1" source="ba1DpxkW9Q_4-LXGkMh1-5" target="ba1DpxkW9Q_4-LXGkMh1-14">
          <mxGeometry relative="1" as="geometry" />
        </mxCell>
        <mxCell id="ba1DpxkW9Q_4-LXGkMh1-5" value="&lt;font style=&quot;font-size: 16px;&quot;&gt;user 6&lt;/font&gt;" style="ellipse;whiteSpace=wrap;html=1;aspect=fixed;" vertex="1" parent="1">
          <mxGeometry x="-1458" y="435" width="80" height="80" as="geometry" />
        </mxCell>
        <mxCell id="ba1DpxkW9Q_4-LXGkMh1-6" style="edgeStyle=none;curved=1;rounded=0;orthogonalLoop=1;jettySize=auto;html=1;exitX=0.5;exitY=1;exitDx=0;exitDy=0;entryX=0.5;entryY=0;entryDx=0;entryDy=0;fontSize=12;startSize=8;endSize=8;" edge="1" parent="1" source="ba1DpxkW9Q_4-LXGkMh1-7" target="ba1DpxkW9Q_4-LXGkMh1-16">
          <mxGeometry relative="1" as="geometry" />
        </mxCell>
        <mxCell id="ba1DpxkW9Q_4-LXGkMh1-7" value="&lt;font style=&quot;font-size: 16px;&quot;&gt;user 3&lt;/font&gt;" style="ellipse;whiteSpace=wrap;html=1;aspect=fixed;" vertex="1" parent="1">
          <mxGeometry x="-1024" y="142" width="80" height="80" as="geometry" />
        </mxCell>
        <mxCell id="ba1DpxkW9Q_4-LXGkMh1-8" style="edgeStyle=none;curved=1;rounded=0;orthogonalLoop=1;jettySize=auto;html=1;exitX=0.5;exitY=1;exitDx=0;exitDy=0;entryX=0.5;entryY=0;entryDx=0;entryDy=0;fontSize=12;startSize=8;endSize=8;" edge="1" parent="1" source="ba1DpxkW9Q_4-LXGkMh1-9" target="ba1DpxkW9Q_4-LXGkMh1-17">
          <mxGeometry relative="1" as="geometry" />
        </mxCell>
        <mxCell id="ba1DpxkW9Q_4-LXGkMh1-9" value="&lt;font style=&quot;font-size: 16px;&quot;&gt;user 2&lt;/font&gt;" style="ellipse;whiteSpace=wrap;html=1;aspect=fixed;" vertex="1" parent="1">
          <mxGeometry x="-1370" y="435" width="80" height="80" as="geometry" />
        </mxCell>
        <mxCell id="ba1DpxkW9Q_4-LXGkMh1-10" value="&lt;span style=&quot;font-size: 16px;&quot;&gt;company 3&lt;/span&gt;" style="whiteSpace=wrap;html=1;aspect=fixed;" vertex="1" parent="1">
          <mxGeometry x="-1114" y="568" width="80" height="80" as="geometry" />
        </mxCell>
        <mxCell id="ba1DpxkW9Q_4-LXGkMh1-11" value="&lt;span style=&quot;font-size: 16px;&quot;&gt;company 1&lt;/span&gt;" style="whiteSpace=wrap;html=1;aspect=fixed;" vertex="1" parent="1">
          <mxGeometry x="-1378" y="271" width="80" height="80" as="geometry" />
        </mxCell>
        <mxCell id="ba1DpxkW9Q_4-LXGkMh1-12" value="&lt;span style=&quot;font-size: 16px;&quot;&gt;company 6&lt;/span&gt;" style="whiteSpace=wrap;html=1;aspect=fixed;" vertex="1" parent="1">
          <mxGeometry x="-1126" y="271" width="80" height="80" as="geometry" />
        </mxCell>
        <mxCell id="ba1DpxkW9Q_4-LXGkMh1-13" value="&lt;span style=&quot;font-size: 16px;&quot;&gt;company 7&lt;/span&gt;" style="whiteSpace=wrap;html=1;aspect=fixed;" vertex="1" parent="1">
          <mxGeometry x="-1214" y="568" width="80" height="80" as="geometry" />
        </mxCell>
        <mxCell id="ba1DpxkW9Q_4-LXGkMh1-14" value="&lt;span style=&quot;font-size: 16px;&quot;&gt;company 4&lt;/span&gt;" style="whiteSpace=wrap;html=1;aspect=fixed;" vertex="1" parent="1">
          <mxGeometry x="-1458" y="568" width="80" height="80" as="geometry" />
        </mxCell>
        <mxCell id="ba1DpxkW9Q_4-LXGkMh1-15" value="&lt;span style=&quot;font-size: 16px;&quot;&gt;company 9&lt;/span&gt;" style="whiteSpace=wrap;html=1;aspect=fixed;" vertex="1" parent="1">
          <mxGeometry x="-1229" y="273" width="80" height="80" as="geometry" />
        </mxCell>
        <mxCell id="ba1DpxkW9Q_4-LXGkMh1-16" value="&lt;span style=&quot;font-size: 16px;&quot;&gt;company 5&lt;/span&gt;" style="whiteSpace=wrap;html=1;aspect=fixed;" vertex="1" parent="1">
          <mxGeometry x="-1024" y="271" width="80" height="80" as="geometry" />
        </mxCell>
        <mxCell id="ba1DpxkW9Q_4-LXGkMh1-17" value="&lt;span style=&quot;font-size: 16px;&quot;&gt;company 2&lt;/span&gt;" style="whiteSpace=wrap;html=1;aspect=fixed;" vertex="1" parent="1">
          <mxGeometry x="-1330" y="568" width="80" height="80" as="geometry" />
        </mxCell>
        <mxCell id="ba1DpxkW9Q_4-LXGkMh1-18" style="edgeStyle=none;curved=1;rounded=0;orthogonalLoop=1;jettySize=auto;html=1;exitX=0.5;exitY=1;exitDx=0;exitDy=0;entryX=0.5;entryY=0;entryDx=0;entryDy=0;fontSize=12;startSize=8;endSize=8;" edge="1" parent="1" source="ba1DpxkW9Q_4-LXGkMh1-19" target="ba1DpxkW9Q_4-LXGkMh1-11">
          <mxGeometry relative="1" as="geometry" />
        </mxCell>
        <mxCell id="ba1DpxkW9Q_4-LXGkMh1-19" value="&lt;font style=&quot;font-size: 16px;&quot;&gt;user 5&lt;/font&gt;" style="ellipse;whiteSpace=wrap;html=1;aspect=fixed;" vertex="1" parent="1">
          <mxGeometry x="-1378" y="142" width="80" height="80" as="geometry" />
        </mxCell>
        <mxCell id="ba1DpxkW9Q_4-LXGkMh1-20" style="edgeStyle=none;curved=1;rounded=0;orthogonalLoop=1;jettySize=auto;html=1;exitX=0.5;exitY=1;exitDx=0;exitDy=0;entryX=0.5;entryY=0;entryDx=0;entryDy=0;fontSize=12;startSize=8;endSize=8;" edge="1" parent="1" source="ba1DpxkW9Q_4-LXGkMh1-21" target="ba1DpxkW9Q_4-LXGkMh1-10">
          <mxGeometry relative="1" as="geometry" />
        </mxCell>
        <mxCell id="ba1DpxkW9Q_4-LXGkMh1-21" value="&lt;font style=&quot;font-size: 16px;&quot;&gt;user 4&lt;/font&gt;" style="ellipse;whiteSpace=wrap;html=1;aspect=fixed;" vertex="1" parent="1">
          <mxGeometry x="-1114" y="435" width="80" height="80" as="geometry" />
        </mxCell>
        <mxCell id="ba1DpxkW9Q_4-LXGkMh1-22" style="edgeStyle=none;curved=1;rounded=0;orthogonalLoop=1;jettySize=auto;html=1;exitX=0.5;exitY=1;exitDx=0;exitDy=0;entryX=0.5;entryY=0;entryDx=0;entryDy=0;fontSize=12;startSize=8;endSize=8;" edge="1" parent="1" source="ba1DpxkW9Q_4-LXGkMh1-23" target="ba1DpxkW9Q_4-LXGkMh1-26">
          <mxGeometry relative="1" as="geometry" />
        </mxCell>
        <mxCell id="ba1DpxkW9Q_4-LXGkMh1-23" value="&lt;font style=&quot;font-size: 16px;&quot;&gt;user 9&lt;/font&gt;" style="ellipse;whiteSpace=wrap;html=1;aspect=fixed;" vertex="1" parent="1">
          <mxGeometry x="-1481" y="141" width="80" height="80" as="geometry" />
        </mxCell>
        <mxCell id="ba1DpxkW9Q_4-LXGkMh1-24" style="edgeStyle=none;curved=1;rounded=0;orthogonalLoop=1;jettySize=auto;html=1;exitX=0.5;exitY=1;exitDx=0;exitDy=0;entryX=0.5;entryY=0;entryDx=0;entryDy=0;fontSize=12;startSize=8;endSize=8;" edge="1" parent="1" source="ba1DpxkW9Q_4-LXGkMh1-25" target="ba1DpxkW9Q_4-LXGkMh1-13">
          <mxGeometry relative="1" as="geometry" />
        </mxCell>
        <mxCell id="ba1DpxkW9Q_4-LXGkMh1-25" value="&lt;font style=&quot;font-size: 16px;&quot;&gt;user 8&lt;/font&gt;" style="ellipse;whiteSpace=wrap;html=1;aspect=fixed;" vertex="1" parent="1">
          <mxGeometry x="-1210" y="435" width="80" height="80" as="geometry" />
        </mxCell>
        <mxCell id="ba1DpxkW9Q_4-LXGkMh1-26" value="&lt;span style=&quot;font-size: 16px;&quot;&gt;company 8&lt;/span&gt;" style="whiteSpace=wrap;html=1;aspect=fixed;" vertex="1" parent="1">
          <mxGeometry x="-1481" y="273" width="80" height="80" as="geometry" />
        </mxCell>
        <mxCell id="ba1DpxkW9Q_4-LXGkMh1-27" style="edgeStyle=none;curved=1;rounded=0;orthogonalLoop=1;jettySize=auto;html=1;exitX=0.5;exitY=1;exitDx=0;exitDy=0;entryX=0.5;entryY=0;entryDx=0;entryDy=0;fontSize=12;startSize=8;endSize=8;" edge="1" parent="1" source="ba1DpxkW9Q_4-LXGkMh1-28" target="ba1DpxkW9Q_4-LXGkMh1-17">
          <mxGeometry relative="1" as="geometry" />
        </mxCell>
        <mxCell id="ba1DpxkW9Q_4-LXGkMh1-28" value="&lt;font style=&quot;font-size: 16px;&quot;&gt;user 7&lt;/font&gt;" style="ellipse;whiteSpace=wrap;html=1;aspect=fixed;" vertex="1" parent="1">
          <mxGeometry x="-1290" y="435" width="80" height="80" as="geometry" />
        </mxCell>
        <mxCell id="ba1DpxkW9Q_4-LXGkMh1-29" style="edgeStyle=none;curved=1;rounded=0;orthogonalLoop=1;jettySize=auto;html=1;exitX=0.5;exitY=1;exitDx=0;exitDy=0;entryX=0.5;entryY=0;entryDx=0;entryDy=0;fontSize=12;startSize=8;endSize=8;" edge="1" parent="1" source="ba1DpxkW9Q_4-LXGkMh1-30" target="ba1DpxkW9Q_4-LXGkMh1-15">
          <mxGeometry relative="1" as="geometry" />
        </mxCell>
        <mxCell id="ba1DpxkW9Q_4-LXGkMh1-30" value="&lt;font style=&quot;font-size: 16px;&quot;&gt;user 10&lt;/font&gt;" style="ellipse;whiteSpace=wrap;html=1;aspect=fixed;" vertex="1" parent="1">
          <mxGeometry x="-1275" y="141" width="80" height="80" as="geometry" />
        </mxCell>
      </root>
    </mxGraphModel>
  </diagram>
</mxfile>
